<svg xmlns="http://www.w3.org/2000/svg" width="20" height="20" viewBox="0 0 20 20"><path d="M10,0A10,10,0,1,0,20,10.039,10.068,10.068,0,0,0,10,0Zm1.758,18.652a8.877,8.877,0,0,1-3.516,0V15.91a1.666,1.666,0,0,1,.41-1.207,12.815,12.815,0,0,0,.726-1.066l-.9-.141a4.112,4.112,0,0,1-3.6-2.484A3.985,3.985,0,0,1,5.5,7.191a.707.707,0,0,0,.141-.68,3.452,3.452,0,0,1-.035-1.723A5.346,5.346,0,0,1,7.4,5.645a.842.842,0,0,0,.492.117,8.516,8.516,0,0,1,2.121-.3,7.18,7.18,0,0,1,1.957.281.846.846,0,0,0,.633-.094,5.206,5.206,0,0,1,1.793-.856,3.454,3.454,0,0,1-.035,1.723.706.706,0,0,0,.141.68,3.986,3.986,0,0,1,.621,3.82,4.112,4.112,0,0,1-3.6,2.484l-.9.141a12.532,12.532,0,0,0,.727,1.066,1.667,1.667,0,0,1,.41,1.207Zm1.172-.34v-2.4a2.81,2.81,0,0,0-.328-1.441,5.012,5.012,0,0,0,3.609-3.047,5.152,5.152,0,0,0-.668-4.8A3.884,3.884,0,0,0,15.3,3.992a.915.915,0,0,0-.773-.4h-.012a5.134,5.134,0,0,0-2.391.973,8.265,8.265,0,0,0-2.133-.281,8.1,8.1,0,0,0-2.1.281,5.177,5.177,0,0,0-2.449-.973.9.9,0,0,0-.738.4,3.886,3.886,0,0,0-.246,2.625,5.157,5.157,0,0,0-.668,4.8A5.012,5.012,0,0,0,7.4,14.469,2.548,2.548,0,0,0,7.093,15.5a1.562,1.562,0,0,1-.962.079,1.3,1.3,0,0,1-.752-.643,2.409,2.409,0,0,0-2.161-1.337l.1,1.167c.418-.038.834.4,1.05.768a2.412,2.412,0,0,0,2.7,1.2v1.58a8.828,8.828,0,1,1,5.859,0Zm0,0"/></svg>